<svg width="227" height="44" viewBox="0 0 227 44" fill="none" xmlns="http://www.w3.org/2000/svg">
<rect x="2.5" y="2.5" width="22.7858" height="35" rx="11.3929" stroke="url(#paint0_linear_6_20)" stroke-width="5"/>
<path d="M62.408 17.3324H58.4194C58.2659 16.4801 57.9804 15.7301 57.5628 15.0824C57.1452 14.4347 56.6338 13.8849 56.0287 13.4332C55.4236 12.9815 54.7461 12.6406 53.9961 12.4105C53.2546 12.1804 52.4662 12.0653 51.631 12.0653C50.1225 12.0653 48.7716 12.4446 47.5784 13.2031C46.3938 13.9616 45.4563 15.0739 44.7659 16.5398C44.0841 18.0057 43.7432 19.7955 43.7432 21.9091C43.7432 24.0398 44.0841 25.8381 44.7659 27.304C45.4563 28.7699 46.398 29.8778 47.5912 30.6278C48.7844 31.3778 50.1267 31.7528 51.6182 31.7528C52.4449 31.7528 53.229 31.642 53.9705 31.4205C54.7205 31.1903 55.398 30.8537 56.0032 30.4105C56.6083 29.9673 57.1196 29.4261 57.5372 28.7869C57.9634 28.1392 58.2574 27.3977 58.4194 26.5625L62.408 26.5753C62.1949 27.8622 61.7816 29.0469 61.1679 30.1293C60.5628 31.2031 59.783 32.1321 58.8284 32.9162C57.8824 33.6918 56.8 34.2926 55.5813 34.7188C54.3625 35.1449 53.033 35.358 51.5926 35.358C49.3256 35.358 47.3057 34.821 45.533 33.7472C43.7603 32.6648 42.3625 31.1179 41.3398 29.1065C40.3256 27.0952 39.8185 24.696 39.8185 21.9091C39.8185 19.1136 40.3299 16.7145 41.3526 14.7116C42.3753 12.7003 43.773 11.1577 45.5458 10.0838C47.3185 9.00142 49.3341 8.46023 51.5926 8.46023C52.9819 8.46023 54.2773 8.66051 55.479 9.06108C56.6892 9.45312 57.7759 10.0327 58.739 10.7997C59.702 11.5582 60.4989 12.4872 61.1296 13.5866C61.7603 14.6776 62.1864 15.9261 62.408 17.3324ZM75.0994 35.3963C73.2585 35.3963 71.652 34.9744 70.2798 34.1307C68.9076 33.2869 67.8423 32.1065 67.0838 30.5895C66.3252 29.0724 65.946 27.2997 65.946 25.2713C65.946 23.2344 66.3252 21.4531 67.0838 19.9276C67.8423 18.402 68.9076 17.2173 70.2798 16.3736C71.652 15.5298 73.2585 15.108 75.0994 15.108C76.9403 15.108 78.5468 15.5298 79.919 16.3736C81.2912 17.2173 82.3565 18.402 83.115 19.9276C83.8735 21.4531 84.2528 23.2344 84.2528 25.2713C84.2528 27.2997 83.8735 29.0724 83.115 30.5895C82.3565 32.1065 81.2912 33.2869 79.919 34.1307C78.5468 34.9744 76.9403 35.3963 75.0994 35.3963ZM75.1122 32.1875C76.3054 32.1875 77.294 31.8722 78.0781 31.2415C78.8622 30.6108 79.4417 29.7713 79.8167 28.723C80.2002 27.6747 80.392 26.5199 80.392 25.2585C80.392 24.0057 80.2002 22.8551 79.8167 21.8068C79.4417 20.75 78.8622 19.902 78.0781 19.2628C77.294 18.6236 76.3054 18.304 75.1122 18.304C73.9105 18.304 72.9133 18.6236 72.1207 19.2628C71.3366 19.902 70.7528 20.75 70.3693 21.8068C69.9943 22.8551 69.8068 24.0057 69.8068 25.2585C69.8068 26.5199 69.9943 27.6747 70.3693 28.723C70.7528 29.7713 71.3366 30.6108 72.1207 31.2415C72.9133 31.8722 73.9105 32.1875 75.1122 32.1875ZM92.3419 23.3409V35H88.5195V15.3636H92.1885V18.5597H92.4314C92.8831 17.5199 93.5905 16.6847 94.5536 16.054C95.5252 15.4233 96.7482 15.108 98.2226 15.108C99.5607 15.108 100.733 15.3892 101.738 15.9517C102.744 16.5057 103.524 17.3324 104.078 18.4318C104.632 19.5312 104.909 20.8906 104.909 22.5099V35H101.086V22.9702C101.086 21.5469 100.716 20.4347 99.974 19.6335C99.2326 18.8239 98.2141 18.419 96.9186 18.419C96.0323 18.419 95.2439 18.6108 94.5536 18.9943C93.8718 19.3778 93.3306 19.9403 92.93 20.6818C92.538 21.4148 92.3419 22.3011 92.3419 23.3409ZM124.75 20.1577L121.285 20.7713C121.14 20.3281 120.91 19.9062 120.595 19.5057C120.288 19.1051 119.87 18.777 119.342 18.5213C118.814 18.2656 118.153 18.1378 117.36 18.1378C116.278 18.1378 115.375 18.3807 114.65 18.8665C113.926 19.3437 113.564 19.9616 113.564 20.7202C113.564 21.3764 113.806 21.9048 114.292 22.3054C114.778 22.706 115.562 23.0341 116.644 23.2898L119.764 24.0057C121.571 24.4233 122.917 25.0668 123.804 25.9361C124.69 26.8054 125.133 27.9347 125.133 29.3239C125.133 30.5 124.792 31.5483 124.11 32.4688C123.437 33.3807 122.495 34.0966 121.285 34.6165C120.083 35.1364 118.69 35.3963 117.105 35.3963C114.906 35.3963 113.112 34.9276 111.723 33.9901C110.333 33.044 109.481 31.7017 109.166 29.9631L112.86 29.4006C113.091 30.3636 113.564 31.0923 114.279 31.5866C114.995 32.0724 115.929 32.3153 117.079 32.3153C118.332 32.3153 119.333 32.0554 120.083 31.5355C120.833 31.0071 121.208 30.3636 121.208 29.6051C121.208 28.9915 120.978 28.4759 120.518 28.0582C120.066 27.6406 119.372 27.3253 118.434 27.1122L115.11 26.3835C113.278 25.9659 111.923 25.3011 111.045 24.3892C110.176 23.4773 109.741 22.3224 109.741 20.9247C109.741 19.7656 110.065 18.7514 110.713 17.8821C111.36 17.0128 112.255 16.3352 113.397 15.8494C114.539 15.3551 115.848 15.108 117.322 15.108C119.444 15.108 121.115 15.5682 122.333 16.4886C123.552 17.4006 124.358 18.6236 124.75 20.1577ZM141.775 26.8565V15.3636H145.61V35H141.852V31.5994H141.647C141.195 32.6477 140.471 33.5213 139.474 34.2202C138.485 34.9105 137.254 35.2557 135.779 35.2557C134.518 35.2557 133.401 34.9787 132.43 34.4247C131.467 33.8622 130.708 33.0312 130.154 31.9318C129.609 30.8324 129.336 29.473 129.336 27.8537V15.3636H133.158V27.3935C133.158 28.7315 133.529 29.7969 134.271 30.5895C135.012 31.3821 135.975 31.7784 137.16 31.7784C137.876 31.7784 138.587 31.5994 139.295 31.2415C140.011 30.8835 140.603 30.3423 141.072 29.6179C141.549 28.8935 141.783 27.973 141.775 26.8565ZM154.568 8.81818V35H150.746V8.81818H154.568ZM168.877 15.3636V18.4318H158.151V15.3636H168.877ZM161.028 10.6591H164.85V29.2344C164.85 29.9759 164.961 30.5341 165.182 30.9091C165.404 31.2756 165.69 31.527 166.039 31.6634C166.397 31.7912 166.785 31.8551 167.202 31.8551C167.509 31.8551 167.778 31.8338 168.008 31.7912C168.238 31.7486 168.417 31.7145 168.545 31.6889L169.235 34.8466C169.013 34.9318 168.698 35.017 168.289 35.1023C167.88 35.196 167.369 35.2472 166.755 35.2557C165.749 35.2727 164.812 35.0938 163.942 34.7188C163.073 34.3438 162.37 33.7642 161.833 32.9801C161.296 32.196 161.028 31.2116 161.028 30.027V10.6591ZM178.82 35.4347C177.576 35.4347 176.451 35.2045 175.445 34.7443C174.439 34.2756 173.642 33.598 173.054 32.7116C172.475 31.8253 172.185 30.7386 172.185 29.4517C172.185 28.3437 172.398 27.4318 172.824 26.7159C173.25 26 173.826 25.4332 174.55 25.0156C175.274 24.598 176.084 24.2827 176.979 24.0696C177.874 23.8565 178.786 23.6946 179.715 23.5838C180.891 23.4474 181.845 23.3366 182.578 23.2514C183.311 23.1577 183.844 23.0085 184.176 22.804C184.509 22.5994 184.675 22.267 184.675 21.8068V21.7173C184.675 20.6009 184.36 19.7358 183.729 19.1222C183.107 18.5085 182.178 18.2017 180.942 18.2017C179.655 18.2017 178.641 18.4872 177.899 19.0582C177.167 19.6207 176.659 20.2472 176.378 20.9375L172.786 20.1193C173.212 18.9261 173.834 17.9631 174.652 17.2301C175.479 16.4886 176.429 15.9517 177.503 15.6193C178.577 15.2784 179.706 15.108 180.891 15.108C181.675 15.108 182.506 15.2017 183.384 15.3892C184.27 15.5682 185.097 15.9006 185.864 16.3864C186.64 16.8722 187.274 17.5668 187.769 18.4702C188.263 19.3651 188.51 20.5284 188.51 21.9602V35H184.777V32.3153H184.624C184.377 32.8097 184.006 33.2955 183.512 33.7727C183.017 34.25 182.382 34.6463 181.607 34.9616C180.831 35.277 179.902 35.4347 178.82 35.4347ZM179.651 32.3665C180.708 32.3665 181.611 32.1577 182.361 31.7401C183.12 31.3224 183.695 30.777 184.087 30.1037C184.488 29.4219 184.688 28.6932 184.688 27.9176V25.3864C184.551 25.5227 184.287 25.6506 183.895 25.7699C183.512 25.8807 183.073 25.9787 182.578 26.0639C182.084 26.1406 181.603 26.2131 181.134 26.2812C180.665 26.3409 180.273 26.392 179.958 26.4347C179.216 26.5284 178.539 26.6861 177.925 26.9077C177.32 27.1293 176.834 27.4489 176.468 27.8665C176.11 28.2756 175.931 28.821 175.931 29.5028C175.931 30.4489 176.28 31.1648 176.979 31.6506C177.678 32.1278 178.568 32.3665 179.651 32.3665ZM197.424 23.3409V35H193.602V15.3636H197.271V18.5597H197.513C197.965 17.5199 198.673 16.6847 199.636 16.054C200.607 15.4233 201.83 15.108 203.305 15.108C204.643 15.108 205.815 15.3892 206.82 15.9517C207.826 16.5057 208.606 17.3324 209.16 18.4318C209.714 19.5312 209.991 20.8906 209.991 22.5099V35H206.168V22.9702C206.168 21.5469 205.798 20.4347 205.056 19.6335C204.315 18.8239 203.296 18.419 202.001 18.419C201.114 18.419 200.326 18.6108 199.636 18.9943C198.954 19.3778 198.413 19.9403 198.012 20.6818C197.62 21.4148 197.424 22.3011 197.424 23.3409ZM224.283 15.3636V18.4318H213.557V15.3636H224.283ZM216.434 10.6591H220.256V29.2344C220.256 29.9759 220.367 30.5341 220.589 30.9091C220.81 31.2756 221.096 31.527 221.445 31.6634C221.803 31.7912 222.191 31.8551 222.609 31.8551C222.915 31.8551 223.184 31.8338 223.414 31.7912C223.644 31.7486 223.823 31.7145 223.951 31.6889L224.641 34.8466C224.42 34.9318 224.104 35.017 223.695 35.1023C223.286 35.196 222.775 35.2472 222.161 35.2557C221.156 35.2727 220.218 35.0938 219.349 34.7188C218.479 34.3438 217.776 33.7642 217.239 32.9801C216.702 32.196 216.434 31.2116 216.434 30.027V10.6591Z" fill="#121212"/>
<defs>
<linearGradient id="paint0_linear_6_20" x1="13.8929" y1="0" x2="13.8929" y2="40" gradientUnits="userSpaceOnUse">
<stop stop-color="#415FFF"/>
<stop offset="0.659259" stop-color="white" stop-opacity="0.97"/>
<stop offset="1" stop-color="#415FFF"/>
</linearGradient>
</defs>
</svg>
