<svg width="227" height="45" viewBox="0 0 227 45" fill="none" xmlns="http://www.w3.org/2000/svg">
<rect x="2.5" y="2.62695" width="22.7858" height="35" rx="11.3929" stroke="url(#paint0_linear_22_888)" stroke-width="5"/>
<path d="M62.408 17.4593H58.4194C58.2659 16.6071 57.9804 15.8571 57.5628 15.2093C57.1452 14.5616 56.6338 14.0119 56.0287 13.5602C55.4236 13.1085 54.7461 12.7676 53.9961 12.5375C53.2546 12.3074 52.4662 12.1923 51.631 12.1923C50.1225 12.1923 48.7716 12.5716 47.5784 13.3301C46.3938 14.0886 45.4563 15.2008 44.7659 16.6667C44.0841 18.1326 43.7432 19.9224 43.7432 22.036C43.7432 24.1667 44.0841 25.965 44.7659 27.4309C45.4563 28.8968 46.398 30.0048 47.5912 30.7548C48.7844 31.5048 50.1267 31.8798 51.6182 31.8798C52.4449 31.8798 53.229 31.769 53.9705 31.5474C54.7205 31.3173 55.398 30.9806 56.0032 30.5375C56.6083 30.0943 57.1196 29.5531 57.5372 28.9139C57.9634 28.2662 58.2574 27.5247 58.4194 26.6895L62.408 26.7022C62.1949 27.9892 61.7816 29.1738 61.1679 30.2562C60.5628 31.3301 59.783 32.2591 58.8284 33.0431C57.8824 33.8187 56.8 34.4196 55.5813 34.8457C54.3625 35.2718 53.033 35.4849 51.5926 35.4849C49.3256 35.4849 47.3057 34.948 45.533 33.8741C43.7603 32.7917 42.3625 31.2449 41.3398 29.2335C40.3256 27.2221 39.8185 24.823 39.8185 22.036C39.8185 19.2406 40.3299 16.8414 41.3526 14.8386C42.3753 12.8272 43.773 11.2846 45.5458 10.2108C47.3185 9.12837 49.3341 8.58718 51.5926 8.58718C52.9819 8.58718 54.2773 8.78746 55.479 9.18803C56.6892 9.58008 57.7759 10.1596 58.739 10.9267C59.702 11.6852 60.4989 12.6142 61.1296 13.7136C61.7603 14.8045 62.1864 16.0531 62.408 17.4593ZM75.0994 35.5233C73.2585 35.5233 71.652 35.1014 70.2798 34.2576C68.9076 33.4139 67.8423 32.2335 67.0838 30.7164C66.3252 29.1994 65.946 27.4267 65.946 25.3983C65.946 23.3613 66.3252 21.5801 67.0838 20.0545C67.8423 18.5289 68.9076 17.3443 70.2798 16.5005C71.652 15.6568 73.2585 15.2349 75.0994 15.2349C76.9403 15.2349 78.5468 15.6568 79.919 16.5005C81.2912 17.3443 82.3565 18.5289 83.115 20.0545C83.8735 21.5801 84.2528 23.3613 84.2528 25.3983C84.2528 27.4267 83.8735 29.1994 83.115 30.7164C82.3565 32.2335 81.2912 33.4139 79.919 34.2576C78.5468 35.1014 76.9403 35.5233 75.0994 35.5233ZM75.1122 32.3145C76.3054 32.3145 77.294 31.9991 78.0781 31.3684C78.8622 30.7377 79.4417 29.8983 79.8167 28.85C80.2002 27.8017 80.392 26.6468 80.392 25.3855C80.392 24.1326 80.2002 22.9821 79.8167 21.9338C79.4417 20.877 78.8622 20.0289 78.0781 19.3897C77.294 18.7505 76.3054 18.4309 75.1122 18.4309C73.9105 18.4309 72.9133 18.7505 72.1207 19.3897C71.3366 20.0289 70.7528 20.877 70.3693 21.9338C69.9943 22.9821 69.8068 24.1326 69.8068 25.3855C69.8068 26.6468 69.9943 27.8017 70.3693 28.85C70.7528 29.8983 71.3366 30.7377 72.1207 31.3684C72.9133 31.9991 73.9105 32.3145 75.1122 32.3145ZM92.3419 23.4679V35.127H88.5195V15.4906H92.1885V18.6866H92.4314C92.8831 17.6468 93.5905 16.8116 94.5536 16.1809C95.5252 15.5502 96.7482 15.2349 98.2226 15.2349C99.5607 15.2349 100.733 15.5162 101.738 16.0787C102.744 16.6326 103.524 17.4593 104.078 18.5588C104.632 19.6582 104.909 21.0176 104.909 22.6369V35.127H101.086V23.0971C101.086 21.6738 100.716 20.5616 99.974 19.7605C99.2326 18.9508 98.2141 18.546 96.9186 18.546C96.0323 18.546 95.2439 18.7377 94.5536 19.1213C93.8718 19.5048 93.3306 20.0673 92.93 20.8088C92.538 21.5417 92.3419 22.4281 92.3419 23.4679ZM124.75 20.2846L121.285 20.8983C121.14 20.4551 120.91 20.0332 120.595 19.6326C120.288 19.2321 119.87 18.9039 119.342 18.6483C118.814 18.3926 118.153 18.2647 117.36 18.2647C116.278 18.2647 115.375 18.5076 114.65 18.9934C113.926 19.4707 113.564 20.0886 113.564 20.8471C113.564 21.5034 113.806 22.0318 114.292 22.4324C114.778 22.8329 115.562 23.161 116.644 23.4167L119.764 24.1326C121.571 24.5502 122.917 25.1937 123.804 26.063C124.69 26.9324 125.133 28.0616 125.133 29.4508C125.133 30.627 124.792 31.6752 124.11 32.5957C123.437 33.5076 122.495 34.2235 121.285 34.7434C120.083 35.2633 118.69 35.5233 117.105 35.5233C114.906 35.5233 113.112 35.0545 111.723 34.117C110.333 33.171 109.481 31.8287 109.166 30.09L112.86 29.5275C113.091 30.4906 113.564 31.2193 114.279 31.7136C114.995 32.1994 115.929 32.4423 117.079 32.4423C118.332 32.4423 119.333 32.1824 120.083 31.6625C120.833 31.1341 121.208 30.4906 121.208 29.7321C121.208 29.1184 120.978 28.6028 120.518 28.1852C120.066 27.7676 119.372 27.4522 118.434 27.2392L115.11 26.5105C113.278 26.0929 111.923 25.4281 111.045 24.5162C110.176 23.6042 109.741 22.4494 109.741 21.0517C109.741 19.8926 110.065 18.8784 110.713 18.0091C111.36 17.1397 112.255 16.4622 113.397 15.9764C114.539 15.4821 115.848 15.2349 117.322 15.2349C119.444 15.2349 121.115 15.6951 122.333 16.6156C123.552 17.5275 124.358 18.7505 124.75 20.2846ZM141.775 26.9835V15.4906H145.61V35.127H141.852V31.7264H141.647C141.195 32.7747 140.471 33.6483 139.474 34.3471C138.485 35.0375 137.254 35.3826 135.779 35.3826C134.518 35.3826 133.401 35.1056 132.43 34.5517C131.467 33.9892 130.708 33.1582 130.154 32.0588C129.609 30.9593 129.336 29.6 129.336 27.9806V15.4906H133.158V27.5204C133.158 28.8585 133.529 29.9238 134.271 30.7164C135.012 31.5091 135.975 31.9054 137.16 31.9054C137.876 31.9054 138.587 31.7264 139.295 31.3684C140.011 31.0105 140.603 30.4693 141.072 29.7449C141.549 29.0204 141.783 28.1 141.775 26.9835ZM154.568 8.94513V35.127H150.746V8.94513H154.568ZM168.877 15.4906V18.5588H158.151V15.4906H168.877ZM161.028 10.786H164.85V29.3613C164.85 30.1028 164.961 30.661 165.182 31.036C165.404 31.4025 165.69 31.6539 166.039 31.7903C166.397 31.9181 166.785 31.9821 167.202 31.9821C167.509 31.9821 167.778 31.9608 168.008 31.9181C168.238 31.8755 168.417 31.8414 168.545 31.8159L169.235 34.9735C169.013 35.0588 168.698 35.144 168.289 35.2292C167.88 35.323 167.369 35.3741 166.755 35.3826C165.749 35.3997 164.812 35.2207 163.942 34.8457C163.073 34.4707 162.37 33.8912 161.833 33.1071C161.296 32.323 161.028 31.3386 161.028 30.1539V10.786ZM178.82 35.5616C177.576 35.5616 176.451 35.3315 175.445 34.8713C174.439 34.4025 173.642 33.725 173.054 32.8386C172.475 31.9522 172.185 30.8656 172.185 29.5787C172.185 28.4707 172.398 27.5588 172.824 26.8429C173.25 26.127 173.826 25.5602 174.55 25.1426C175.274 24.725 176.084 24.4096 176.979 24.1966C177.874 23.9835 178.786 23.8216 179.715 23.7108C180.891 23.5744 181.845 23.4636 182.578 23.3784C183.311 23.2846 183.844 23.1355 184.176 22.9309C184.509 22.7264 184.675 22.394 184.675 21.9338V21.8443C184.675 20.7278 184.36 19.8627 183.729 19.2491C183.107 18.6355 182.178 18.3287 180.942 18.3287C179.655 18.3287 178.641 18.6142 177.899 19.1852C177.167 19.7477 176.659 20.3741 176.378 21.0645L172.786 20.2463C173.212 19.0531 173.834 18.09 174.652 17.3571C175.479 16.6156 176.429 16.0787 177.503 15.7463C178.577 15.4054 179.706 15.2349 180.891 15.2349C181.675 15.2349 182.506 15.3287 183.384 15.5162C184.27 15.6951 185.097 16.0275 185.864 16.5133C186.64 16.9991 187.274 17.6937 187.769 18.5971C188.263 19.492 188.51 20.6554 188.51 22.0872V35.127H184.777V32.4423H184.624C184.377 32.9366 184.006 33.4224 183.512 33.8997C183.017 34.377 182.382 34.7733 181.607 35.0886C180.831 35.4039 179.902 35.5616 178.82 35.5616ZM179.651 32.4934C180.708 32.4934 181.611 32.2846 182.361 31.867C183.12 31.4494 183.695 30.9039 184.087 30.2306C184.488 29.5488 184.688 28.8201 184.688 28.0446V25.5133C184.551 25.6497 184.287 25.7775 183.895 25.8968C183.512 26.0076 183.073 26.1056 182.578 26.1909C182.084 26.2676 181.603 26.34 181.134 26.4082C180.665 26.4679 180.273 26.519 179.958 26.5616C179.216 26.6554 178.539 26.813 177.925 27.0346C177.32 27.2562 176.834 27.5758 176.468 27.9934C176.11 28.4025 175.931 28.948 175.931 29.6298C175.931 30.5758 176.28 31.2917 176.979 31.7775C177.678 32.2548 178.568 32.4934 179.651 32.4934ZM197.424 23.4679V35.127H193.602V15.4906H197.271V18.6866H197.513C197.965 17.6468 198.673 16.8116 199.636 16.1809C200.607 15.5502 201.83 15.2349 203.305 15.2349C204.643 15.2349 205.815 15.5162 206.82 16.0787C207.826 16.6326 208.606 17.4593 209.16 18.5588C209.714 19.6582 209.991 21.0176 209.991 22.6369V35.127H206.168V23.0971C206.168 21.6738 205.798 20.5616 205.056 19.7605C204.315 18.9508 203.296 18.546 202.001 18.546C201.114 18.546 200.326 18.7377 199.636 19.1213C198.954 19.5048 198.413 20.0673 198.012 20.8088C197.62 21.5417 197.424 22.4281 197.424 23.4679ZM224.283 15.4906V18.5588H213.557V15.4906H224.283ZM216.434 10.786H220.256V29.3613C220.256 30.1028 220.367 30.661 220.589 31.036C220.81 31.4025 221.096 31.6539 221.445 31.7903C221.803 31.9181 222.191 31.9821 222.609 31.9821C222.915 31.9821 223.184 31.9608 223.414 31.9181C223.644 31.8755 223.823 31.8414 223.951 31.8159L224.641 34.9735C224.42 35.0588 224.104 35.144 223.695 35.2292C223.286 35.323 222.775 35.3741 222.161 35.3826C221.156 35.3997 220.218 35.2207 219.349 34.8457C218.479 34.4707 217.776 33.8912 217.239 33.1071C216.702 32.323 216.434 31.3386 216.434 30.1539V10.786Z" fill="white"/>
<defs>
<linearGradient id="paint0_linear_22_888" x1="13.8929" y1="0.126953" x2="13.8929" y2="40.127" gradientUnits="userSpaceOnUse">
<stop stop-color="#415FFF"/>
<stop offset="0.659259" stop-color="white" stop-opacity="0.97"/>
<stop offset="1" stop-color="#415FFF"/>
</linearGradient>
</defs>
</svg>
