<svg width="1920" height="970" viewBox="0 0 1920 970" fill="none" xmlns="http://www.w3.org/2000/svg">
<path d="M4.04169 14.353C22.4412 12.4669 73.4995 18.3413 143.662 51.9358C239.042 97.6047 318.998 70.1214 379.878 45.0689C461.678 11.4088 508.322 11.4088 590.122 45.0689C651.003 70.1214 730.96 97.6047 826.34 51.9358C896.5 18.3413 947.557 12.4669 965.958 14.353" stroke="#415FFF" stroke-width="0.08" stroke-linecap="round" stroke-linejoin="round"/>
<path d="M4.04169 241.318C22.4412 239.432 73.4995 245.306 143.662 278.901C239.042 324.568 318.998 297.086 379.878 272.034C461.678 238.374 508.322 238.374 590.122 272.034C651.003 297.086 730.96 324.568 826.34 278.901C896.5 245.306 947.557 239.432 965.958 241.318" stroke="#415FFF" stroke-width="0.08" stroke-linecap="round" stroke-linejoin="round"/>
<path d="M4.04169 468.284C22.4412 466.395 73.4995 472.27 143.662 505.865C239.042 551.535 318.998 524.052 379.878 498.997C461.678 465.338 508.322 465.338 590.122 498.997C651.003 524.052 730.96 551.535 826.34 505.865C896.5 472.27 947.557 466.395 965.958 468.284" stroke="#415FFF" stroke-width="0.08" stroke-linecap="round" stroke-linejoin="round"/>
<path d="M4.04169 695.248C22.4412 693.363 73.4995 699.234 143.662 732.832C239.042 778.499 318.998 751.016 379.878 725.964C461.678 692.302 508.322 692.302 590.122 725.964C651.003 751.016 730.96 778.499 826.34 732.832C896.5 699.234 947.557 693.363 965.958 695.248" stroke="#415FFF" stroke-width="0.08" stroke-linecap="round" stroke-linejoin="round"/>
<path d="M4.04169 127.835C22.4412 125.949 73.4995 131.824 143.662 165.418C239.042 211.087 318.998 183.604 379.878 158.551C461.678 124.891 508.322 124.891 590.122 158.551C651.003 183.604 730.96 211.087 826.34 165.418C896.5 131.824 947.557 125.949 965.958 127.835" stroke="#415FFF" stroke-width="0.08" stroke-linecap="round" stroke-linejoin="round"/>
<path d="M4.04169 354.8C22.4412 352.915 73.4995 358.79 143.662 392.384C239.042 438.052 318.998 410.569 379.878 385.517C461.678 351.855 508.322 351.855 590.122 385.517C651.003 410.569 730.96 438.052 826.34 392.384C896.5 358.79 947.557 352.915 965.958 354.8" stroke="#415FFF" stroke-width="0.08" stroke-linecap="round" stroke-linejoin="round"/>
<path d="M4.04169 581.764C22.4412 579.879 73.4995 585.754 143.662 619.348C239.042 665.016 318.998 637.532 379.878 612.48C461.678 578.821 508.322 578.821 590.122 612.48C651.003 637.532 730.96 665.016 826.34 619.348C896.5 585.754 947.557 579.879 965.958 581.764" stroke="#415FFF" stroke-width="0.08" stroke-linecap="round" stroke-linejoin="round"/>
<path d="M4.04169 808.731C22.4412 806.843 73.4995 812.718 143.662 846.312C239.042 891.983 318.998 864.5 379.878 839.445C461.678 805.786 508.322 805.786 590.122 839.445C651.003 864.5 730.96 891.983 826.34 846.312C896.5 812.718 947.557 806.843 965.958 808.731" stroke="#415FFF" stroke-width="0.08" stroke-linecap="round" stroke-linejoin="round"/>
<path d="M4.04169 71.0943C22.4412 69.208 73.4995 75.0826 143.662 108.677C239.042 154.346 318.998 126.862 379.878 101.81C461.678 68.15 508.322 68.15 590.122 101.81C651.003 126.862 730.96 154.346 826.34 108.677C896.5 75.0826 947.557 69.208 965.958 71.0943" stroke="#415FFF" stroke-width="0.08" stroke-linecap="round" stroke-linejoin="round"/>
<path d="M4.04169 298.059C22.4412 296.173 73.4995 302.047 143.662 335.643C239.042 381.31 318.998 353.827 379.878 328.775C461.678 295.115 508.322 295.115 590.122 328.775C651.003 353.827 730.96 381.31 826.34 335.643C896.5 302.047 947.557 296.173 965.958 298.059" stroke="#415FFF" stroke-width="0.08" stroke-linecap="round" stroke-linejoin="round"/>
<path d="M4.04169 525.022C22.4412 523.137 73.4995 529.012 143.662 562.606C239.042 608.274 318.998 580.791 379.878 555.739C461.678 522.08 508.322 522.08 590.122 555.739C651.003 580.791 730.96 608.274 826.34 562.606C896.5 529.012 947.557 523.137 965.958 525.025" stroke="#415FFF" stroke-width="0.08" stroke-linecap="round" stroke-linejoin="round"/>
<path d="M4.04169 751.989C22.4412 750.101 73.4995 755.976 143.662 789.57C239.042 835.241 318.998 807.758 379.878 782.706C461.678 749.044 508.322 749.044 590.122 782.706C651.003 807.758 730.96 835.241 826.34 789.57C896.5 755.976 947.557 750.101 965.958 751.989" stroke="#415FFF" stroke-width="0.08" stroke-linecap="round" stroke-linejoin="round"/>
<path d="M4.04169 184.577C22.4412 182.691 73.4995 188.565 143.662 222.16C239.042 267.828 318.998 240.345 379.878 215.293C461.678 181.632 508.322 181.633 590.122 215.293C651.003 240.345 730.96 267.828 826.34 222.16C896.5 188.565 947.557 182.691 965.958 184.577" stroke="#415FFF" stroke-width="0.08" stroke-linecap="round" stroke-linejoin="round"/>
<path d="M4.04169 411.542C22.4412 409.657 73.4995 415.529 143.662 449.123C239.042 494.794 318.998 467.311 379.878 442.259C461.678 408.596 508.322 408.596 590.122 442.259C651.003 467.311 730.96 494.794 826.34 449.123C896.5 415.529 947.557 409.657 965.958 411.542" stroke="#415FFF" stroke-width="0.08" stroke-linecap="round" stroke-linejoin="round"/>
<path d="M4.04169 638.506C22.4412 636.621 73.4995 642.496 143.662 676.09C239.042 721.758 318.998 694.274 379.878 669.222C461.678 635.563 508.322 635.563 590.122 669.222C651.003 694.274 730.96 721.758 826.34 676.09C896.5 642.496 947.557 636.621 965.958 638.506" stroke="#415FFF" stroke-width="0.08" stroke-linecap="round" stroke-linejoin="round"/>
<path d="M4.04169 865.47C22.4412 863.585 73.4995 869.46 143.662 903.054C239.042 948.722 318.998 921.238 379.878 896.186C461.678 862.527 508.322 862.527 590.122 896.186C651.003 921.238 730.96 948.722 826.34 903.054C896.5 869.46 947.557 863.585 965.958 865.47" stroke="#415FFF" stroke-width="0.08" stroke-linecap="round" stroke-linejoin="round"/>
<path d="M4.04169 42.7237C22.4412 40.8373 73.4995 46.712 143.662 80.3063C239.042 125.975 318.998 98.4919 379.878 73.4394C461.678 39.7794 508.322 39.7794 590.122 73.4397C651.003 98.4919 730.96 125.975 826.34 80.3063C896.5 46.712 947.557 40.8373 965.958 42.7237" stroke="#415FFF" stroke-width="0.08" stroke-linecap="round" stroke-linejoin="round"/>
<path d="M4.04169 269.689C22.4412 267.802 73.4995 273.677 143.662 307.271C239.042 352.941 318.998 325.458 379.878 300.405C461.678 266.744 508.322 266.744 590.122 300.405C651.003 325.458 730.96 352.941 826.34 307.271C896.5 273.677 947.557 267.802 965.958 269.689" stroke="#415FFF" stroke-width="0.08" stroke-linecap="round" stroke-linejoin="round"/>
<path d="M4.04169 496.653C22.4412 494.768 73.4995 500.643 143.662 534.237C239.042 579.905 318.998 552.422 379.878 527.37C461.678 493.711 508.322 493.711 590.122 527.37C651.003 552.422 730.96 579.905 826.34 534.237C896.5 500.643 947.557 494.768 965.958 496.653" stroke="#415FFF" stroke-width="0.08" stroke-linecap="round" stroke-linejoin="round"/>
<path d="M4.04169 723.617C22.4412 721.732 73.4995 727.607 143.662 761.201C239.042 806.868 318.998 779.385 379.878 754.333C461.678 720.674 508.322 720.674 590.122 754.333C651.003 779.385 730.96 806.868 826.34 761.201C896.5 727.607 947.557 721.732 965.958 723.617" stroke="#415FFF" stroke-width="0.08" stroke-linecap="round" stroke-linejoin="round"/>
<path d="M4.04169 156.206C22.4412 154.32 73.4995 160.194 143.662 193.789C239.042 239.458 318.998 211.975 379.878 186.922C461.678 153.262 508.322 153.262 590.122 186.922C651.003 211.975 730.96 239.458 826.34 193.789C896.5 160.194 947.557 154.32 965.958 156.206" stroke="#415FFF" stroke-width="0.08" stroke-linecap="round" stroke-linejoin="round"/>
<path d="M4.04169 383.169C22.4412 381.284 73.4995 387.159 143.662 420.754C239.042 466.421 318.998 438.938 379.878 413.886C461.678 380.227 508.322 380.227 590.122 413.886C651.003 438.938 730.96 466.421 826.34 420.754C896.5 387.159 947.557 381.284 965.958 383.169" stroke="#415FFF" stroke-width="0.08" stroke-linecap="round" stroke-linejoin="round"/>
<path d="M4.04169 610.136C22.4412 608.248 73.4995 614.123 143.662 647.717C239.042 693.388 318.998 665.905 379.878 640.853C461.678 607.191 508.322 607.191 590.122 640.853C651.003 665.905 730.96 693.388 826.34 647.717C896.5 614.123 947.557 608.248 965.958 610.136" stroke="#415FFF" stroke-width="0.08" stroke-linecap="round" stroke-linejoin="round"/>
<path d="M4.04169 837.1C22.4412 835.215 73.4995 841.09 143.662 874.684C239.042 920.352 318.998 892.869 379.878 867.817C461.678 834.155 508.322 834.155 590.122 867.817C651.003 892.869 730.96 920.352 826.34 874.684C896.5 841.09 947.557 835.215 965.958 837.1" stroke="#415FFF" stroke-width="0.08" stroke-linecap="round" stroke-linejoin="round"/>
<path d="M4.04169 99.4648C22.4412 97.5788 73.4995 103.453 143.662 137.047C239.042 182.717 318.998 155.233 379.878 130.181C461.678 96.5205 508.322 96.5205 590.122 130.181C651.003 155.233 730.96 182.717 826.34 137.047C896.5 103.453 947.557 97.5788 965.958 99.4648" stroke="#415FFF" stroke-width="0.08" stroke-linecap="round" stroke-linejoin="round"/>
<path d="M4.04169 326.431C22.4412 324.542 73.4995 330.417 143.662 364.012C239.042 409.683 318.998 382.199 379.878 357.144C461.678 323.485 508.322 323.485 590.122 357.144C651.003 382.199 730.96 409.683 826.34 364.012C896.5 330.417 947.557 324.542 965.958 326.431" stroke="#415FFF" stroke-width="0.08" stroke-linecap="round" stroke-linejoin="round"/>
<path d="M4.04169 553.395C22.4412 551.51 73.4995 557.381 143.662 590.976C239.042 636.647 318.998 609.163 379.878 584.111C461.678 550.449 508.322 550.449 590.122 584.111C651.003 609.163 730.96 636.647 826.34 590.976C896.5 557.381 947.557 551.51 965.958 553.395" stroke="#415FFF" stroke-width="0.08" stroke-linecap="round" stroke-linejoin="round"/>
<path d="M4.04169 780.359C22.4412 778.474 73.4995 784.348 143.662 817.943C239.042 863.61 318.998 836.127 379.878 811.075C461.678 777.416 508.322 777.416 590.122 811.075C651.003 836.127 730.96 863.61 826.34 817.943C896.5 784.348 947.557 778.474 965.958 780.359" stroke="#415FFF" stroke-width="0.08" stroke-linecap="round" stroke-linejoin="round"/>
<path d="M4.04169 212.947C22.4412 211.061 73.4995 216.936 143.662 250.53C239.042 296.199 318.998 268.716 379.878 243.663C461.678 210.003 508.322 210.003 590.122 243.663C651.003 268.716 730.96 296.199 826.34 250.53C896.5 216.936 947.557 211.061 965.958 212.947" stroke="#415FFF" stroke-width="0.08" stroke-linecap="round" stroke-linejoin="round"/>
<path d="M4.04169 439.911C22.4412 438.026 73.4995 443.901 143.662 477.495C239.042 523.163 318.998 495.68 379.878 470.628C461.678 436.969 508.322 436.969 590.122 470.628C651.003 495.68 730.96 523.163 826.34 477.495C896.5 443.901 947.557 438.026 965.958 439.911" stroke="#415FFF" stroke-width="0.08" stroke-linecap="round" stroke-linejoin="round"/>
<path d="M4.04169 666.878C22.4412 664.99 73.4995 670.865 143.662 704.459C239.042 750.13 318.998 722.647 379.878 697.592C461.678 663.933 508.322 663.933 590.122 697.592C651.003 722.647 730.96 750.13 826.34 704.459C896.5 670.865 947.557 664.99 965.958 666.878" stroke="#415FFF" stroke-width="0.08" stroke-linecap="round" stroke-linejoin="round"/>
<path d="M4.04169 893.842C22.4412 891.957 73.4995 897.829 143.662 931.423C239.042 977.094 318.998 949.611 379.878 924.559C461.678 890.897 508.322 890.897 590.122 924.559C651.003 949.611 730.96 977.094 826.34 931.423C896.5 897.829 947.557 891.957 965.958 893.842" stroke="#415FFF" stroke-width="0.08" stroke-linecap="round" stroke-linejoin="round"/>
<path d="M974.042 14.353C992.441 12.4669 1043.5 18.3413 1113.66 51.9358C1209.04 97.6047 1289 70.1214 1349.88 45.0689C1431.68 11.4088 1478.32 11.4088 1560.12 45.0689C1621 70.1214 1700.96 97.6047 1796.34 51.9358C1866.5 18.3413 1917.56 12.4669 1935.96 14.353" stroke="#415FFF" stroke-width="0.08" stroke-linecap="round" stroke-linejoin="round"/>
<path d="M974.042 241.318C992.441 239.432 1043.5 245.306 1113.66 278.901C1209.04 324.568 1289 297.086 1349.88 272.034C1431.68 238.374 1478.32 238.374 1560.12 272.034C1621 297.086 1700.96 324.568 1796.34 278.901C1866.5 245.306 1917.56 239.432 1935.96 241.318" stroke="#415FFF" stroke-width="0.08" stroke-linecap="round" stroke-linejoin="round"/>
<path d="M974.042 468.284C992.441 466.395 1043.5 472.27 1113.66 505.865C1209.04 551.535 1289 524.052 1349.88 498.997C1431.68 465.338 1478.32 465.338 1560.12 498.997C1621 524.052 1700.96 551.535 1796.34 505.865C1866.5 472.27 1917.56 466.395 1935.96 468.284" stroke="#415FFF" stroke-width="0.08" stroke-linecap="round" stroke-linejoin="round"/>
<path d="M974.042 695.248C992.441 693.363 1043.5 699.234 1113.66 732.832C1209.04 778.499 1289 751.016 1349.88 725.964C1431.68 692.302 1478.32 692.302 1560.12 725.964C1621 751.016 1700.96 778.499 1796.34 732.832C1866.5 699.234 1917.56 693.363 1935.96 695.248" stroke="#415FFF" stroke-width="0.08" stroke-linecap="round" stroke-linejoin="round"/>
<path d="M974.042 127.835C992.441 125.949 1043.5 131.824 1113.66 165.418C1209.04 211.087 1289 183.604 1349.88 158.551C1431.68 124.891 1478.32 124.891 1560.12 158.551C1621 183.604 1700.96 211.087 1796.34 165.418C1866.5 131.824 1917.56 125.949 1935.96 127.835" stroke="#415FFF" stroke-width="0.08" stroke-linecap="round" stroke-linejoin="round"/>
<path d="M974.042 354.8C992.441 352.915 1043.5 358.79 1113.66 392.384C1209.04 438.052 1289 410.569 1349.88 385.517C1431.68 351.855 1478.32 351.855 1560.12 385.517C1621 410.569 1700.96 438.052 1796.34 392.384C1866.5 358.79 1917.56 352.915 1935.96 354.8" stroke="#415FFF" stroke-width="0.08" stroke-linecap="round" stroke-linejoin="round"/>
<path d="M974.042 581.764C992.441 579.879 1043.5 585.754 1113.66 619.348C1209.04 665.016 1289 637.532 1349.88 612.48C1431.68 578.821 1478.32 578.821 1560.12 612.48C1621 637.532 1700.96 665.016 1796.34 619.348C1866.5 585.754 1917.56 579.879 1935.96 581.764" stroke="#415FFF" stroke-width="0.08" stroke-linecap="round" stroke-linejoin="round"/>
<path d="M974.042 808.731C992.441 806.843 1043.5 812.718 1113.66 846.312C1209.04 891.983 1289 864.5 1349.88 839.445C1431.68 805.786 1478.32 805.786 1560.12 839.445C1621 864.5 1700.96 891.983 1796.34 846.312C1866.5 812.718 1917.56 806.843 1935.96 808.731" stroke="#415FFF" stroke-width="0.08" stroke-linecap="round" stroke-linejoin="round"/>
<path d="M974.042 71.0943C992.441 69.208 1043.5 75.0826 1113.66 108.677C1209.04 154.346 1289 126.862 1349.88 101.81C1431.68 68.15 1478.32 68.15 1560.12 101.81C1621 126.862 1700.96 154.346 1796.34 108.677C1866.5 75.0826 1917.56 69.208 1935.96 71.0943" stroke="#415FFF" stroke-width="0.08" stroke-linecap="round" stroke-linejoin="round"/>
<path d="M974.042 298.059C992.441 296.173 1043.5 302.047 1113.66 335.643C1209.04 381.31 1289 353.827 1349.88 328.775C1431.68 295.115 1478.32 295.115 1560.12 328.775C1621 353.827 1700.96 381.31 1796.34 335.643C1866.5 302.047 1917.56 296.173 1935.96 298.059" stroke="#415FFF" stroke-width="0.08" stroke-linecap="round" stroke-linejoin="round"/>
<path d="M974.042 525.022C992.441 523.137 1043.5 529.012 1113.66 562.606C1209.04 608.274 1289 580.791 1349.88 555.739C1431.68 522.08 1478.32 522.08 1560.12 555.739C1621 580.791 1700.96 608.274 1796.34 562.606C1866.5 529.012 1917.56 523.137 1935.96 525.025" stroke="#415FFF" stroke-width="0.08" stroke-linecap="round" stroke-linejoin="round"/>
<path d="M974.042 751.989C992.441 750.101 1043.5 755.976 1113.66 789.57C1209.04 835.241 1289 807.758 1349.88 782.706C1431.68 749.044 1478.32 749.044 1560.12 782.706C1621 807.758 1700.96 835.241 1796.34 789.57C1866.5 755.976 1917.56 750.101 1935.96 751.989" stroke="#415FFF" stroke-width="0.08" stroke-linecap="round" stroke-linejoin="round"/>
<path d="M974.042 184.577C992.441 182.691 1043.5 188.565 1113.66 222.16C1209.04 267.828 1289 240.345 1349.88 215.293C1431.68 181.632 1478.32 181.633 1560.12 215.293C1621 240.345 1700.96 267.828 1796.34 222.16C1866.5 188.565 1917.56 182.691 1935.96 184.577" stroke="#415FFF" stroke-width="0.08" stroke-linecap="round" stroke-linejoin="round"/>
<path d="M974.042 411.542C992.441 409.657 1043.5 415.529 1113.66 449.123C1209.04 494.794 1289 467.311 1349.88 442.259C1431.68 408.596 1478.32 408.596 1560.12 442.259C1621 467.311 1700.96 494.794 1796.34 449.123C1866.5 415.529 1917.56 409.657 1935.96 411.542" stroke="#415FFF" stroke-width="0.08" stroke-linecap="round" stroke-linejoin="round"/>
<path d="M974.042 638.506C992.441 636.621 1043.5 642.496 1113.66 676.09C1209.04 721.758 1289 694.274 1349.88 669.222C1431.68 635.563 1478.32 635.563 1560.12 669.222C1621 694.274 1700.96 721.758 1796.34 676.09C1866.5 642.496 1917.56 636.621 1935.96 638.506" stroke="#415FFF" stroke-width="0.08" stroke-linecap="round" stroke-linejoin="round"/>
<path d="M974.042 865.47C992.441 863.585 1043.5 869.46 1113.66 903.054C1209.04 948.722 1289 921.238 1349.88 896.186C1431.68 862.527 1478.32 862.527 1560.12 896.186C1621 921.238 1700.96 948.722 1796.34 903.054C1866.5 869.46 1917.56 863.585 1935.96 865.47" stroke="#415FFF" stroke-width="0.08" stroke-linecap="round" stroke-linejoin="round"/>
<path d="M974.042 42.7237C992.441 40.8373 1043.5 46.712 1113.66 80.3063C1209.04 125.975 1289 98.4919 1349.88 73.4394C1431.68 39.7794 1478.32 39.7794 1560.12 73.4397C1621 98.4919 1700.96 125.975 1796.34 80.3063C1866.5 46.712 1917.56 40.8373 1935.96 42.7237" stroke="#415FFF" stroke-width="0.08" stroke-linecap="round" stroke-linejoin="round"/>
<path d="M974.042 269.689C992.441 267.802 1043.5 273.677 1113.66 307.271C1209.04 352.941 1289 325.458 1349.88 300.405C1431.68 266.744 1478.32 266.744 1560.12 300.405C1621 325.458 1700.96 352.941 1796.34 307.271C1866.5 273.677 1917.56 267.802 1935.96 269.689" stroke="#415FFF" stroke-width="0.08" stroke-linecap="round" stroke-linejoin="round"/>
<path d="M974.042 496.653C992.441 494.768 1043.5 500.643 1113.66 534.237C1209.04 579.905 1289 552.422 1349.88 527.37C1431.68 493.711 1478.32 493.711 1560.12 527.37C1621 552.422 1700.96 579.905 1796.34 534.237C1866.5 500.643 1917.56 494.768 1935.96 496.653" stroke="#415FFF" stroke-width="0.08" stroke-linecap="round" stroke-linejoin="round"/>
<path d="M974.042 723.617C992.441 721.732 1043.5 727.607 1113.66 761.201C1209.04 806.868 1289 779.385 1349.88 754.333C1431.68 720.674 1478.32 720.674 1560.12 754.333C1621 779.385 1700.96 806.868 1796.34 761.201C1866.5 727.607 1917.56 721.732 1935.96 723.617" stroke="#415FFF" stroke-width="0.08" stroke-linecap="round" stroke-linejoin="round"/>
<path d="M974.042 156.206C992.441 154.32 1043.5 160.194 1113.66 193.789C1209.04 239.458 1289 211.975 1349.88 186.922C1431.68 153.262 1478.32 153.262 1560.12 186.922C1621 211.975 1700.96 239.458 1796.34 193.789C1866.5 160.194 1917.56 154.32 1935.96 156.206" stroke="#415FFF" stroke-width="0.08" stroke-linecap="round" stroke-linejoin="round"/>
<path d="M974.042 383.169C992.441 381.284 1043.5 387.159 1113.66 420.754C1209.04 466.421 1289 438.938 1349.88 413.886C1431.68 380.227 1478.32 380.227 1560.12 413.886C1621 438.938 1700.96 466.421 1796.34 420.754C1866.5 387.159 1917.56 381.284 1935.96 383.169" stroke="#415FFF" stroke-width="0.08" stroke-linecap="round" stroke-linejoin="round"/>
<path d="M974.042 610.136C992.441 608.248 1043.5 614.123 1113.66 647.717C1209.04 693.388 1289 665.905 1349.88 640.853C1431.68 607.191 1478.32 607.191 1560.12 640.853C1621 665.905 1700.96 693.388 1796.34 647.717C1866.5 614.123 1917.56 608.248 1935.96 610.136" stroke="#415FFF" stroke-width="0.08" stroke-linecap="round" stroke-linejoin="round"/>
<path d="M974.042 837.1C992.441 835.215 1043.5 841.09 1113.66 874.684C1209.04 920.352 1289 892.869 1349.88 867.817C1431.68 834.155 1478.32 834.155 1560.12 867.817C1621 892.869 1700.96 920.352 1796.34 874.684C1866.5 841.09 1917.56 835.215 1935.96 837.1" stroke="#415FFF" stroke-width="0.08" stroke-linecap="round" stroke-linejoin="round"/>
<path d="M974.042 99.4648C992.441 97.5788 1043.5 103.453 1113.66 137.047C1209.04 182.717 1289 155.233 1349.88 130.181C1431.68 96.5205 1478.32 96.5205 1560.12 130.181C1621 155.233 1700.96 182.717 1796.34 137.047C1866.5 103.453 1917.56 97.5788 1935.96 99.4648" stroke="#415FFF" stroke-width="0.08" stroke-linecap="round" stroke-linejoin="round"/>
<path d="M974.042 326.431C992.441 324.542 1043.5 330.417 1113.66 364.012C1209.04 409.683 1289 382.199 1349.88 357.144C1431.68 323.485 1478.32 323.485 1560.12 357.144C1621 382.199 1700.96 409.683 1796.34 364.012C1866.5 330.417 1917.56 324.542 1935.96 326.431" stroke="#415FFF" stroke-width="0.08" stroke-linecap="round" stroke-linejoin="round"/>
<path d="M974.042 553.395C992.441 551.51 1043.5 557.381 1113.66 590.976C1209.04 636.647 1289 609.163 1349.88 584.111C1431.68 550.449 1478.32 550.449 1560.12 584.111C1621 609.163 1700.96 636.647 1796.34 590.976C1866.5 557.381 1917.56 551.51 1935.96 553.395" stroke="#415FFF" stroke-width="0.08" stroke-linecap="round" stroke-linejoin="round"/>
<path d="M974.042 780.359C992.441 778.474 1043.5 784.348 1113.66 817.943C1209.04 863.61 1289 836.127 1349.88 811.075C1431.68 777.416 1478.32 777.416 1560.12 811.075C1621 836.127 1700.96 863.61 1796.34 817.943C1866.5 784.348 1917.56 778.474 1935.96 780.359" stroke="#415FFF" stroke-width="0.08" stroke-linecap="round" stroke-linejoin="round"/>
<path d="M974.042 212.947C992.441 211.061 1043.5 216.936 1113.66 250.53C1209.04 296.199 1289 268.716 1349.88 243.663C1431.68 210.003 1478.32 210.003 1560.12 243.663C1621 268.716 1700.96 296.199 1796.34 250.53C1866.5 216.936 1917.56 211.061 1935.96 212.947" stroke="#415FFF" stroke-width="0.08" stroke-linecap="round" stroke-linejoin="round"/>
<path d="M974.042 439.911C992.441 438.026 1043.5 443.901 1113.66 477.495C1209.04 523.163 1289 495.68 1349.88 470.628C1431.68 436.969 1478.32 436.969 1560.12 470.628C1621 495.68 1700.96 523.163 1796.34 477.495C1866.5 443.901 1917.56 438.026 1935.96 439.911" stroke="#415FFF" stroke-width="0.08" stroke-linecap="round" stroke-linejoin="round"/>
<path d="M974.042 666.878C992.441 664.99 1043.5 670.865 1113.66 704.459C1209.04 750.13 1289 722.647 1349.88 697.592C1431.68 663.933 1478.32 663.933 1560.12 697.592C1621 722.647 1700.96 750.13 1796.34 704.459C1866.5 670.865 1917.56 664.99 1935.96 666.878" stroke="#415FFF" stroke-width="0.08" stroke-linecap="round" stroke-linejoin="round"/>
<path d="M974.042 893.842C992.441 891.957 1043.5 897.829 1113.66 931.423C1209.04 977.094 1289 949.611 1349.88 924.559C1431.68 890.897 1478.32 890.897 1560.12 924.559C1621 949.611 1700.96 977.094 1796.34 931.423C1866.5 897.829 1917.56 891.957 1935.96 893.842" stroke="#415FFF" stroke-width="0.08" stroke-linecap="round" stroke-linejoin="round"/>
</svg>
